# xmcd
#
# Track frame offsets:
#	150
#	20430
#	27817
#	49530
#	77547
#	94845
#	124185
#
# Disc length: 2026 seconds
#
# Revision: 1
# Processed by: cddbd v1.5.1PL0 Copyright (c) Steve Scherf et al.
# Submitted via: CDex 1.50Beta5
#
DISCID=4807e807
DTITLE=cembalo - climb high
DYEAR=1900
DGENRE=Rock
TTITLE0=HEAVEN
TTITLE1=愛する人へ
TTITLE2=NEW FREEDOM
TTITLE3=またあした
TTITLE4=マウスピース
TTITLE5=波の花
TTITLE6=またあした(remix)
EXTD=
EXTT0=
EXTT1=
EXTT2=
EXTT3=
EXTT4=
EXTT5=
EXTT6=
PLAYORDER=
